<svg width="22" height="22" viewBox="0 0 22 22" fill="none" xmlns="http://www.w3.org/2000/svg">
<path d="M8.24082 22C7.98415 22 7.72748 21.9468 7.4864 21.8396C6.83556 21.5481 6.41664 20.8954 6.41664 20.1758V19.9503C3.79313 19.085 -0.166893 16.5825 0.00544086 11.8928C0.00544086 10.9101 0.830445 10.0833 1.84795 10.0833C2.43737 10.0833 2.99562 10.3693 3.34213 10.8478L3.43746 11C4.0498 11.9506 5.0508 12.5381 6.41664 12.7554C6.45056 12.0954 6.85206 11.4904 7.45798 11.1943C7.98232 10.9101 8.86507 10.9715 9.41049 11.4235L13.9792 15.081C14.4146 15.4238 14.6667 15.9463 14.6667 16.511C14.6667 17.0738 14.4155 17.5972 13.9755 17.9447L9.39582 21.6113C9.04749 21.868 8.64232 22 8.24082 22ZM1.87362 11.9561C1.66278 16.8694 7.30765 18.3104 7.54781 18.3691L8.24724 18.5396L8.24999 20.1758L12.8333 16.5091L8.24999 12.8425V14.7079L7.30123 14.6749C4.16896 14.5649 2.62254 13.1376 1.87453 11.9551L1.87362 11.9561ZM20.153 11.9166C19.5626 11.9166 19.0044 11.6306 18.6588 11.1521L18.5598 11C17.9484 10.0494 16.9492 9.4618 15.5806 9.24546C15.5485 9.90546 15.147 10.5123 14.5402 10.8065C14.0159 11.0889 13.1303 11.0266 12.5877 10.5746L8.02082 6.92079C7.5854 6.57704 7.33331 6.05362 7.33331 5.49078C7.33331 4.92703 7.58448 4.40453 8.02448 4.0562L12.6042 0.391351C13.1762 -0.0349002 13.8967 -0.115567 14.5145 0.162184C15.1654 0.451851 15.5834 1.10544 15.5834 1.82227V2.04777C18.2069 2.91219 22.1669 5.41562 21.9946 10.1053C21.9946 11.0889 21.1696 11.9148 20.152 11.9148L20.153 11.9166ZM13.75 7.29021L14.6988 7.32412C17.8283 7.43412 19.3765 8.86046 20.1236 10.042C20.3363 5.1287 14.6905 3.68953 14.4494 3.63086L13.75 3.46036V1.82411L9.16666 5.49078L13.75 9.15746V7.28929V7.29021Z" fill="#9A9D9E"/>
</svg>
