<svg width="13" height="13" viewBox="0 0 13 13" fill="none" xmlns="http://www.w3.org/2000/svg">
<g clip-path="url(#clip0_2_38)">
<path d="M6.5 0C5.21442 0 3.95772 0.381218 2.8888 1.09545C1.81988 1.80968 0.986756 2.82484 0.494786 4.01256C0.00281633 5.20028 -0.125905 6.50721 0.124899 7.76809C0.375703 9.02896 0.994768 10.1872 1.90381 11.0962C2.81285 12.0052 3.97104 12.6243 5.23192 12.8751C6.49279 13.1259 7.79973 12.9972 8.98744 12.5052C10.1752 12.0132 11.1903 11.1801 11.9046 10.1112C12.6188 9.04229 13 7.78558 13 6.5C13 4.77609 12.3152 3.12279 11.0962 1.90381C9.87721 0.68482 8.22391 0 6.5 0V0ZM6.5 11.375C5.53582 11.375 4.59329 11.0891 3.7916 10.5534C2.98991 10.0177 2.36507 9.25637 1.99609 8.36558C1.62711 7.47479 1.53057 6.49459 1.71867 5.54893C1.90678 4.60328 2.37108 3.73464 3.05286 3.05285C3.73464 2.37107 4.60328 1.90677 5.54894 1.71867C6.4946 1.53057 7.47479 1.62711 8.36559 1.99609C9.25637 2.36506 10.0177 2.98991 10.5534 3.7916C11.0891 4.59329 11.375 5.53582 11.375 6.5C11.3736 7.7925 10.8595 9.03166 9.94561 9.9456C9.03167 10.8595 7.7925 11.3736 6.5 11.375Z" fill="#494C4E"/>
<path d="M8.71122 4.29975L8.70025 4.28878C8.62857 4.21704 8.54345 4.16014 8.44976 4.12131C8.35608 4.08248 8.25566 4.0625 8.15425 4.0625C8.05284 4.0625 7.95242 4.08248 7.85873 4.12131C7.76505 4.16014 7.67993 4.21704 7.60825 4.28878L6.5 5.39703L5.39175 4.28878C5.32007 4.21704 5.23495 4.16014 5.14126 4.12131C5.04758 4.08248 4.94716 4.0625 4.84575 4.0625C4.74434 4.0625 4.64392 4.08248 4.55023 4.12131C4.45655 4.16014 4.37143 4.21704 4.29975 4.28878L4.28878 4.29975C4.21704 4.37143 4.16014 4.45655 4.12131 4.55023C4.08248 4.64392 4.0625 4.74434 4.0625 4.84575C4.0625 4.94716 4.08248 5.04758 4.12131 5.14126C4.16014 5.23495 4.21704 5.32007 4.28878 5.39175L5.39703 6.5L4.28878 7.60825C4.21704 7.67993 4.16014 7.76505 4.12131 7.85873C4.08248 7.95242 4.0625 8.05284 4.0625 8.15425C4.0625 8.25566 4.08248 8.35608 4.12131 8.44976C4.16014 8.54345 4.21704 8.62857 4.28878 8.70025L4.29975 8.71122C4.37143 8.78295 4.45655 8.83986 4.55023 8.87869C4.64392 8.91751 4.74434 8.9375 4.84575 8.9375C4.94716 8.9375 5.04758 8.91751 5.14126 8.87869C5.23495 8.83986 5.32007 8.78295 5.39175 8.71122L6.5 7.60297L7.60825 8.71122C7.67993 8.78295 7.76505 8.83986 7.85873 8.87869C7.95242 8.91751 8.05284 8.9375 8.15425 8.9375C8.25566 8.9375 8.35608 8.91751 8.44976 8.87869C8.54345 8.83986 8.62857 8.78295 8.70025 8.71122L8.71122 8.70025C8.78295 8.62857 8.83986 8.54345 8.87869 8.44976C8.91751 8.35608 8.9375 8.25566 8.9375 8.15425C8.9375 8.05284 8.91751 7.95242 8.87869 7.85873C8.83986 7.76505 8.78295 7.67993 8.71122 7.60825L7.60297 6.5L8.71122 5.39175C8.78295 5.32007 8.83986 5.23495 8.87869 5.14126C8.91751 5.04758 8.9375 4.94716 8.9375 4.84575C8.9375 4.74434 8.91751 4.64392 8.87869 4.55023C8.83986 4.45655 8.78295 4.37143 8.71122 4.29975Z" fill="#494C4E"/>
</g>
<defs>
<clipPath id="clip0_2_38">
<rect width="13" height="13" fill="white"/>
</clipPath>
</defs>
</svg>
