<svg width="20" height="20" viewBox="0 0 20 20" fill="none" xmlns="http://www.w3.org/2000/svg">
<path d="M4.5652 10.5217C4.17389 10.5217 3.76085 10.3478 3.47824 10.0652C3.19563 9.78262 3.04346 9.39131 3.04346 9.00001C3.04346 8.60871 3.21737 8.2174 3.47824 7.91305C3.76085 7.63045 4.15215 7.47827 4.5652 7.47827C4.9565 7.47827 5.3478 7.65218 5.63041 7.91305C5.91302 8.19566 6.08694 8.58697 6.08694 9.00001C6.08694 9.39131 5.91302 9.78262 5.63041 10.0652C5.3478 10.3478 4.9565 10.5217 4.5652 10.5217ZM11.0652 10.0652C11.3478 9.78262 11.5217 9.39131 11.5217 9.00001C11.5217 8.60871 11.3478 8.2174 11.0652 7.91305C10.7826 7.63045 10.3913 7.47827 9.99998 7.47827C9.60867 7.47827 9.19563 7.65218 8.91302 7.91305C8.63041 8.19566 8.47824 8.58697 8.47824 9.00001C8.47824 9.39131 8.65215 9.78262 8.91302 10.0652C9.19563 10.3478 9.58694 10.5217 9.99998 10.5217C10.3913 10.5217 10.7826 10.3478 11.0652 10.0652ZM16.5 10.0652C16.7826 9.78262 16.9565 9.39131 16.9565 9.00001C16.9565 8.60871 16.7826 8.2174 16.5 7.91305C16.2174 7.63045 15.8261 7.47827 15.4348 7.47827C15.0435 7.47827 14.6304 7.65218 14.3478 7.91305C14.0652 8.19566 13.913 8.58697 13.913 9.00001C13.913 9.39131 14.0869 9.78262 14.3478 10.0652C14.6304 10.3478 15.0217 10.5217 15.4348 10.5217C15.8261 10.5217 16.2174 10.3478 16.5 10.0652Z" fill="#A6A6A6"/>
</svg>
