<svg width="18" height="17" viewBox="0 0 18 17" fill="none" xmlns="http://www.w3.org/2000/svg">
<path d="M8.361 11.2965C8.3223 11.3369 8.28623 11.3795 8.253 11.424C8.21894 11.4714 8.1917 11.5228 8.172 11.577C8.14605 11.6252 8.12785 11.6767 8.118 11.73C8.11359 11.7866 8.11359 11.8434 8.118 11.9C8.11496 12.0115 8.13962 12.1221 8.19 12.223C8.23042 12.3285 8.29491 12.4243 8.3789 12.5036C8.46289 12.5829 8.56432 12.6438 8.676 12.682C8.78373 12.727 8.90022 12.7502 9.018 12.7502C9.13579 12.7502 9.25227 12.727 9.36 12.682C9.47169 12.6438 9.57312 12.5829 9.65711 12.5036C9.74109 12.4243 9.80558 12.3285 9.846 12.223C9.88597 12.1196 9.90431 12.0099 9.9 11.9C9.90069 11.7881 9.87799 11.6772 9.8332 11.5737C9.78841 11.4701 9.72242 11.3759 9.639 11.2965C9.55534 11.2168 9.4558 11.1536 9.34612 11.1104C9.23645 11.0673 9.11881 11.0451 9 11.0451C8.88119 11.0451 8.76356 11.0673 8.65388 11.1104C8.54421 11.1536 8.44467 11.2168 8.361 11.2965ZM9 0C7.21997 0 5.47991 0.498516 3.99987 1.43251C2.51983 2.3665 1.36628 3.69402 0.685088 5.24719C0.00389956 6.80036 -0.17433 8.50943 0.172937 10.1583C0.520203 11.8071 1.37737 13.3217 2.63604 14.5104C3.89472 15.6992 5.49836 16.5087 7.24419 16.8367C8.99002 17.1646 10.7996 16.9963 12.4442 16.353C14.0887 15.7096 15.4943 14.6202 16.4832 13.2223C17.4722 11.8245 18 10.1811 18 8.5C18 7.38376 17.7672 6.27846 17.3149 5.24719C16.8626 4.21592 16.1997 3.27889 15.364 2.48959C14.5282 1.70029 13.5361 1.07419 12.4442 0.647024C11.3522 0.219859 10.1819 0 9 0ZM9 15.3C7.57598 15.3 6.18393 14.9012 4.9999 14.154C3.81586 13.4068 2.89302 12.3448 2.34807 11.1022C1.80312 9.85971 1.66054 8.49245 1.93835 7.17338C2.21616 5.85431 2.9019 4.64267 3.90883 3.69167C4.91577 2.74068 6.19869 2.09304 7.59535 1.83066C8.99202 1.56828 10.4397 1.70294 11.7553 2.21762C13.071 2.73229 14.1954 3.60387 14.9866 4.72212C15.7777 5.84037 16.2 7.15509 16.2 8.5C16.2 10.3035 15.4414 12.0331 14.0912 13.3083C12.7409 14.5836 10.9096 15.3 9 15.3ZM9 4.25C8.52576 4.24971 8.0598 4.3674 7.64902 4.59123C7.23824 4.81505 6.89712 5.13711 6.66 5.525C6.59488 5.62174 6.55116 5.72993 6.53146 5.84305C6.51176 5.95617 6.51649 6.07188 6.54537 6.18323C6.57425 6.29457 6.62668 6.39925 6.6995 6.49097C6.77232 6.58268 6.86404 6.65954 6.96913 6.71691C7.07422 6.77428 7.19051 6.81098 7.311 6.8248C7.4315 6.83862 7.55371 6.82928 7.67029 6.79734C7.78686 6.7654 7.89539 6.71152 7.98935 6.63894C8.0833 6.56636 8.16074 6.47658 8.217 6.375C8.2963 6.24528 8.41047 6.13766 8.54797 6.06303C8.68547 5.9884 8.84141 5.9494 9 5.95C9.2387 5.95 9.46762 6.03955 9.6364 6.19896C9.80518 6.35836 9.9 6.57456 9.9 6.8C9.9 7.02543 9.80518 7.24163 9.6364 7.40104C9.46762 7.56044 9.2387 7.65 9 7.65C8.76131 7.65 8.53239 7.73955 8.36361 7.89896C8.19482 8.05836 8.1 8.27456 8.1 8.5V9.35C8.1 9.57543 8.19482 9.79163 8.36361 9.95104C8.53239 10.1104 8.76131 10.2 9 10.2C9.2387 10.2 9.46762 10.1104 9.6364 9.95104C9.80518 9.79163 9.9 9.57543 9.9 9.35V9.197C10.4952 8.99302 10.9956 8.59794 11.3137 8.08084C11.6318 7.56373 11.7473 6.9575 11.6401 6.3681C11.5328 5.77871 11.2097 5.24366 10.7271 4.85649C10.2445 4.46931 9.63319 4.25464 9 4.25Z" fill="#878787"/>
</svg>
