<svg width="50" height="42" viewBox="0 0 50 42" fill="none" xmlns="http://www.w3.org/2000/svg">
<path d="M9.83521 34.2163V7.69913C9.83521 7.41109 9.88476 7.12761 9.92386 6.84985L2.32216 9.32437C0.558887 9.89707 -0.407863 11.8087 0.165007 13.5718L8.36267 38.791C8.82413 40.2115 10.1558 41.1196 11.5776 41.1196C11.9206 41.1196 12.2701 41.0665 12.6129 40.9553L14.7696 40.2455C11.9775 39.688 9.83521 37.1648 9.83521 34.2163Z" fill="#4B5060"/>
<path d="M20.6779 0.880493V0.922628H20.6799" fill="#4B5060"/>
<path d="M15.3537 30.2602L23.5477 5.04614C23.6304 4.7913 23.7294 4.48287 23.842 4.31433H15.9588C14.1049 4.31433 12.5319 5.84502 12.5319 7.69897V34.2162C12.5319 36.0701 14.1049 37.6854 15.9588 37.6854H18.6502C15.8531 36.3373 14.3868 33.2361 15.3537 30.2602Z" fill="#4B5060"/>
<path d="M47.6715 9.32444L30.36 3.69973C30.0172 3.58815 29.6686 3.5354 29.3255 3.5354C27.9037 3.5354 26.5739 4.44333 26.1124 5.86362L17.9185 31.0829C17.3456 32.8463 18.3194 34.7576 20.0827 35.3306L37.394 40.9553C37.7368 41.0666 38.0854 41.1197 38.4285 41.1197C39.8503 41.1197 41.1801 40.2114 41.6416 38.7911L49.8357 13.5718C50.4086 11.8087 49.4348 9.89714 47.6715 9.32444ZM31.49 29.0424C23.3263 19.1291 28.0821 14.2025 31.0921 14.216C33.6285 14.2281 34.6611 16.0469 35.1015 17.9183C36.4581 16.4284 38.4619 15.7971 40.5211 17.2777C42.9648 19.0346 43.9201 25.8146 31.49 29.0424Z" fill="#4B5060"/>
</svg>
